<svg xmlns="http://www.w3.org/2000/svg" xmlns:xlink="http://www.w3.org/1999/xlink" width="1080" zoomAndPan="magnify" viewBox="0 0 810 809.999993" height="1080" preserveAspectRatio="xMidYMid meet" version="1.0"><path fill="#ffffff" d="M 209.480469 319.277344 C 236.417969 207.808594 289.144531 87.828125 341.230469 87.828125 C 343.804688 87.828125 346.382812 88.132812 348.855469 88.726562 C 360.210938 91.46875 369.246094 100.117188 375.878906 114.15625 C 376.585938 114.710938 377.355469 115.140625 377.9375 115.878906 C 407.09375 153.15625 511.503906 276.269531 630.621094 305.054688 L 721.632812 328.539062 C 721.992188 328.621094 722.347656 328.730469 722.699219 328.84375 C 750.585938 336.507812 774.125 354.050781 789.277344 378.539062 C 805.125 404.171875 809.945312 434.457031 802.835938 463.847656 C 795.726562 493.226562 777.609375 517.980469 751.808594 533.539062 C 726.128906 549.035156 695.757812 553.640625 666.3125 546.535156 L 647.445312 541.972656 C 647.445312 541.972656 647.433594 541.972656 647.425781 541.972656 L 647.417969 541.972656 L 624.71875 536.488281 L 549.410156 691.230469 C 539.605469 711.359375 519.382812 723.09375 498.355469 723.09375 C 490.039062 723.09375 481.597656 721.265625 473.636719 717.394531 C 445.546875 703.703125 433.8125 669.71875 447.492188 641.621094 L 508.382812 516.507812 C 399.660156 515.589844 288.632812 566.117188 263.257812 578.421875 C 254.175781 585.1875 244.972656 588.941406 235.789062 588.941406 C 233.214844 588.941406 230.636719 588.636719 228.164062 588.035156 C 204.121094 582.222656 190.304688 550.257812 188.199219 495.589844 C 186.308594 446.496094 193.863281 383.882812 209.480469 319.277344 Z M 671.984375 523.113281 C 695.199219 528.738281 719.140625 525.105469 739.371094 512.902344 C 759.609375 500.695312 773.847656 481.25 779.417969 458.175781 C 784.996094 435.097656 781.222656 411.296875 768.777344 391.1875 C 756.515625 371.34375 737.210938 357.269531 714.355469 351.511719 L 706.332031 349.566406 L 664.800781 521.371094 Z M 484.183594 695.726562 C 500.328125 703.585938 519.890625 696.835938 527.742188 680.683594 L 555.074219 624.53125 L 495.675781 597.699219 L 469.160156 652.175781 C 461.292969 668.320312 468.039062 687.855469 484.183594 695.726562 Z M 506.222656 576.023438 L 565.617188 602.851562 L 600.734375 530.695312 L 572.839844 523.949219 C 560.316406 520.925781 547.511719 518.933594 534.570312 517.765625 Z M 578.511719 500.527344 L 641.382812 515.71875 L 682.910156 343.902344 L 624.941406 329.863281 C 524.777344 305.65625 435.722656 219.863281 387.816406 165.816406 C 388.242188 170.734375 388.597656 175.816406 388.808594 181.171875 C 389.800781 206.730469 388.167969 236.007812 384.222656 267.277344 C 384.167969 267.722656 384.277344 268.148438 384.175781 268.601562 C 384.136719 268.75 384.027344 268.855469 383.988281 269 C 380.355469 297.277344 374.871094 327.136719 367.53125 357.488281 C 360.339844 387.25 351.292969 417.601562 340.933594 446.125 C 340.875 446.691406 341.007812 447.230469 340.867188 447.796875 C 340.46875 449.433594 339.691406 450.835938 338.734375 452.105469 C 326.84375 483.96875 313.285156 513.199219 298.808594 536.441406 C 363.609375 510.742188 477.722656 476.152344 578.511719 500.527344 Z M 358.457031 277.90625 C 340.300781 282.902344 318.753906 307.683594 309.625 345.414062 C 300.570312 382.910156 308.246094 414.597656 321.980469 427.515625 C 329.855469 404.847656 337.382812 379.667969 344.109375 351.816406 C 350.21875 326.554688 354.980469 301.707031 358.457031 277.90625 Z M 212.269531 494.660156 C 214.019531 539.804688 224.351562 562.324219 233.824219 564.613281 C 234.453125 564.773438 235.105469 564.835938 235.789062 564.835938 C 237.921875 564.835938 240.292969 564.179688 242.871094 562.910156 C 243.878906 561.640625 245.140625 560.546875 246.671875 559.75 C 247.171875 559.488281 248.46875 558.8125 250.414062 557.847656 C 267.847656 543.476562 291.378906 507.097656 313.238281 451.175781 C 286.085938 434.496094 274.25 389.195312 286.207031 339.742188 C 298.226562 290.03125 329.605469 254.96875 361.636719 252.886719 C 364.417969 227.277344 365.554688 203.285156 364.742188 182.089844 C 363 136.945312 352.664062 114.433594 343.195312 112.144531 C 342.5625 111.988281 341.914062 111.921875 341.230469 111.921875 C 317.996094 111.921875 266.046875 187.777344 232.898438 324.941406 C 217.78125 387.453125 210.460938 447.722656 212.269531 494.660156 Z M 212.269531 494.660156 " fill-opacity="1" fill-rule="nonzero"/><path fill="#ffffff" d="M 117.460938 311.847656 C 122.777344 311.734375 127.570312 308.074219 128.894531 302.664062 C 130.480469 296.203125 126.523438 289.679688 120.0625 288.09375 L 41.34375 268.78125 C 34.894531 267.183594 28.359375 271.152344 26.773438 277.613281 C 25.191406 284.070312 29.148438 290.59375 35.605469 292.179688 L 114.328125 311.496094 C 115.375 311.753906 116.429688 311.875 117.460938 311.847656 Z M 117.460938 311.847656 " fill-opacity="1" fill-rule="nonzero"/><path fill="#ffffff" d="M 177.097656 180.1875 C 180.320312 180.050781 183.484375 178.613281 185.742188 175.964844 C 190.0625 170.894531 189.441406 163.285156 184.371094 158.976562 L 113.390625 98.605469 C 108.332031 94.304688 100.710938 94.90625 96.414062 99.976562 C 92.09375 105.046875 92.714844 112.65625 97.785156 116.964844 L 168.765625 177.335938 C 171.175781 179.390625 174.160156 180.320312 177.097656 180.1875 Z M 177.097656 180.1875 " fill-opacity="1" fill-rule="nonzero"/><path fill="#ffffff" d="M 11.484375 477.582031 C 13.066406 477.851562 14.734375 477.8125 16.414062 477.394531 L 103.679688 455.839844 C 110.148438 454.246094 114.078125 447.710938 112.484375 441.261719 C 110.90625 434.800781 104.390625 430.824219 97.90625 432.457031 L 10.640625 454.011719 C 4.171875 455.609375 0.242188 462.140625 1.835938 468.589844 C 3.003906 473.382812 6.90625 476.792969 11.484375 477.582031 Z M 11.484375 477.582031 " fill-opacity="1" fill-rule="nonzero"/>
<style>
svg {
    fill: black
}

@media (prefers-color-scheme: dark) {
    svg {
        fill: white
    }
}
</style>
</svg>